<svg xmlns="http://www.w3.org/2000/svg" xmlns:xlink="http://www.w3.org/1999/xlink" width="34.272" height="34.272" viewBox="0 0 34.272 34.272">
  <defs>
    <style>
      .cls-1 {
        fill: #e60000;
      }

      .cls-2 {
        clip-path: url(#clip-path);
      }

      .cls-3 {
        fill: #f1c9a5;
      }

      .cls-4 {
        fill: #e4b692;
      }

      .cls-5 {
        fill: #ddac8c;
        opacity: 0.1;
      }

      .cls-6 {
        fill: #3595bb;
      }

      .cls-7 {
        fill: #262421;
      }

      .cls-8 {
        fill: #fff;
      }

      .cls-9 {
        fill: #27aae1;
      }
    </style>
    <clipPath id="clip-path">
      <circle id="Ellipse_70" data-name="Ellipse 70" cx="17.136" cy="17.136" r="17.136"/>
    </clipPath>
  </defs>
  <g id="avatar-svgrepo-com" transform="translate(-0.001 0)">
    <circle id="Ellipse_69" data-name="Ellipse 69" class="cls-1" cx="17.136" cy="17.136" r="17.136" transform="translate(0.001 0)"/>
    <g id="Group_131" data-name="Group 131" transform="translate(0.001 0)">
      <g id="Group_130" data-name="Group 130" class="cls-2" transform="translate(0)">
        <g id="Group_129" data-name="Group 129" transform="translate(7.43 9.605)">
          <path id="Path_694" data-name="Path 694" class="cls-3" d="M49.3,105.967c-1.1-2.091-8.207-3.4-8.207-3.4s-7.1,1.312-8.207,3.4c-.816,2.9-1.5,6.589-1.5,6.589H50.8A32.272,32.272,0,0,0,49.3,105.967Z" transform="translate(-31.387 -87.889)"/>
          <path id="Path_695" data-name="Path 695" class="cls-4" d="M72.387,102.564s7.1,1.312,8.207,3.4a32.255,32.255,0,0,1,1.5,6.589H72.387Z" transform="translate(-62.681 -87.889)"/>
          <rect id="Rectangle_107" data-name="Rectangle 107" class="cls-3" width="3.867" height="6.471" transform="translate(7.773 10.424)"/>
          <rect id="Rectangle_108" data-name="Rectangle 108" class="cls-4" width="1.933" height="6.471" transform="translate(9.706 10.424)"/>
          <path id="Path_696" data-name="Path 696" class="cls-5" d="M64.22,87.6A3.047,3.047,0,0,0,67,89.175,3.476,3.476,0,0,0,68.087,89V84.606H64.22Z" transform="translate(-56.447 -74.182)"/>
          <path id="Path_697" data-name="Path 697" class="cls-3" d="M61.33,46.914c0-4.042-2.226-6.34-4.971-6.34s-4.971,2.3-4.971,6.34c0,5.437,2.226,7.319,4.971,7.319S61.33,52.125,61.33,46.914Z" transform="translate(-46.652 -40.574)"/>
          <path id="Path_698" data-name="Path 698" class="cls-4" d="M85.739,66.289a1.786,1.786,0,0,1-1.357-2.168,1.932,1.932,0,0,1,1.906-1.829,1.786,1.786,0,0,1,1.356,2.168A1.932,1.932,0,0,1,85.739,66.289Z" transform="translate(-71.819 -57.146)"/>
          <path id="Path_699" data-name="Path 699" class="cls-3" d="M46.61,64.462a1.786,1.786,0,0,1,1.356-2.168,1.932,1.932,0,0,1,1.907,1.829,1.787,1.787,0,0,1-1.357,2.168A1.932,1.932,0,0,1,46.61,64.462Z" transform="translate(-42.988 -57.147)"/>
          <path id="Path_700" data-name="Path 700" class="cls-4" d="M77.358,46.914c0-4.042-2.226-6.34-4.971-6.34V54.233C75.132,54.233,77.358,52.125,77.358,46.914Z" transform="translate(-62.681 -40.574)"/>
        </g>
        <path id="Path_701" data-name="Path 701" class="cls-6" d="M49.3,108.043c-.645-1.221-3.334-2.176-5.46-2.759l-2.746,3.139-2.746-3.139c-2.127.584-4.815,1.538-5.46,2.759-.816,2.9-1.5,6.589-1.5,6.589H50.8A32.272,32.272,0,0,0,49.3,108.043Z" transform="translate(-23.957 -80.36)"/>
        <path id="Path_702" data-name="Path 702" class="cls-7" d="M51.21,48.4s3.512-2.4,3.925-3.719c-.041,1.2,0,2.272,0,2.272s3.43-3.388,3.1-6.156a5.819,5.819,0,0,0-7.6,1.446A6.483,6.483,0,0,0,51.21,48.4Z" transform="translate(-38.246 -30.52)"/>
        <path id="Path_703" data-name="Path 703" class="cls-7" d="M82.342,44.531a11.065,11.065,0,0,1,1.942,5.826c1.157-1.694,2.4-6.611-1.446-6.941A8.034,8.034,0,0,0,82.342,44.531Z" transform="translate(-62.849 -33.138)"/>
        <path id="Path_704" data-name="Path 704" class="cls-8" d="M75.926,108.453l-2.149-2-1.405,1.337,2.335-3.334a1.308,1.308,0,0,1,1.032.914C75.824,106.676,75.926,108.453,75.926,108.453Z" transform="translate(-55.24 -79.73)"/>
        <path id="Path_705" data-name="Path 705" class="cls-9" d="M69.179,122.434h.759v-6.209l-.759-.719Z" transform="translate(-52.802 -88.161)"/>
        <path id="Path_706" data-name="Path 706" class="cls-8" d="M57.359,108.453l2.149-2,1.405,1.337-2.335-3.334a1.308,1.308,0,0,0-1.032.914C57.461,106.676,57.359,108.453,57.359,108.453Z" transform="translate(-43.781 -79.73)"/>
      </g>
    </g>
  </g>
</svg>
