<svg id="date_icon" data-name="date icon" xmlns="http://www.w3.org/2000/svg" width="27.829" height="31.333" viewBox="0 0 27.829 31.333">
  <defs>
    <style>
      .cls-1 {
        fill-rule: evenodd;
      }
    </style>
  </defs>
  <path id="Path_32" data-name="Path 32" class="cls-1" d="M199.505,132c.179.055.361.1.536.168a2.354,2.354,0,0,1,1.481,2.156c0,.347,0,.695,0,1.091h.93a3.614,3.614,0,0,1,3.46,2.453,2.209,2.209,0,0,1,.106.7q.006,8.733,0,17.467c0,1.284-.009,2.568.007,3.852a3.286,3.286,0,0,1-2.032,3.1,3.4,3.4,0,0,1-1.59.343q-10.241,0-20.483,0a3.662,3.662,0,0,1-3.724-3.756q0-10.241,0-20.483a3.649,3.649,0,0,1,3.669-3.681h1.206c0-.315,0-.6,0-.886a2.3,2.3,0,0,1,1.908-2.477.274.274,0,0,0,.073-.049h.6a.682.682,0,0,0,.131.062,2.214,2.214,0,0,1,1.777,1.829,7,7,0,0,1,.053,1.276c0,.17.042.253.234.251q.969-.013,1.939,0c.188,0,.242-.072.236-.247-.01-.288-.005-.577,0-.865A2.316,2.316,0,0,1,191.7,132.1l.34-.1h.537a.6.6,0,0,0,.132.061,2.249,2.249,0,0,1,1.6,1.218,2.765,2.765,0,0,1,.257,1.418c0,.232,0,.465,0,.691h2.388c0-.373,0-.72,0-1.066a2.351,2.351,0,0,1,1.676-2.221c.113-.033.224-.068.337-.1Zm-19.181,8.779v.277q0,9.254,0,18.508a1.522,1.522,0,0,0,1.658,1.647q10.179,0,20.359,0A1.525,1.525,0,0,0,204,159.557q0-9.239,0-18.478c0-.1-.01-.192-.016-.3Zm4-4.3h0c0,.686,0,1.371,0,2.057a1.026,1.026,0,1,0,2.045.026q.017-2.1,0-4.2a1.024,1.024,0,1,0-2.043.033C184.324,135.088,184.325,135.784,184.325,136.48Zm8.983-.01c0-.7,0-1.391,0-2.087a1.05,1.05,0,0,0-.98-1.1,1.038,1.038,0,0,0-1.055,1.034q-.031,2.146,0,4.293a1.027,1.027,0,0,0,1.059,1.055,1.054,1.054,0,0,0,.979-1.133C193.31,137.841,193.309,137.155,193.308,136.469Zm4.923-.022c0,.745-.014,1.491.005,2.236a1,1,0,0,0,1.972.236,1.9,1.9,0,0,0,.06-.5c.007-.566,0-1.133,0-1.7,0-.755,0-1.511-.006-2.266a1.584,1.584,0,0,0-.061-.44,1,1,0,0,0-1.966.228C198.216,134.976,198.232,135.712,198.231,136.447Z" transform="translate(-178.198 -132)"/>
  <path id="Path_33" data-name="Path 33" class="cls-1" d="M339.4,421.713v3.453h-3.878v-3.453Z" transform="translate(-326.129 -404.412)"/>
  <path id="Path_34" data-name="Path 34" class="cls-1" d="M427.441,421.755V425.2h-3.888v-3.447Z" transform="translate(-408.901 -404.452)"/>
  <path id="Path_35" data-name="Path 35" class="cls-1" d="M250.623,424.809h-3.838a2.2,2.2,0,0,1-.029-.256c0-.973.009-1.947,0-2.92,0-.242.081-.3.31-.3,1.1.009,2.205,0,3.308,0,.158,0,.3-.009.294.221-.009,1.043-.008,2.086-.012,3.129A.591.591,0,0,1,250.623,424.809Z" transform="translate(-242.66 -404.055)"/>
  <path id="Path_36" data-name="Path 36" class="cls-1" d="M515.568,424.773h-3.839a2.4,2.4,0,0,1-.029-.261c0-.973,0-1.947-.01-2.92,0-.234.072-.306.307-.3,1.1.012,2.205.007,3.308.006.155,0,.3-.015.3.217-.005,1.033,0,2.066,0,3.1A.976.976,0,0,1,515.568,424.773Z" transform="translate(-491.774 -404.013)"/>
  <path id="Path_37" data-name="Path 37" class="cls-1" d="M339.394,343.34v3.418h-3.881V343.34Z" transform="translate(-326.119 -330.719)"/>
  <path id="Path_38" data-name="Path 38" class="cls-1" d="M427.523,343.464v3.415h-3.884v-3.415Z" transform="translate(-408.982 -330.836)"/>
  <path id="Path_39" data-name="Path 39" class="cls-1" d="M335.008,500.291h3.877v3.438c-.122.007-.238.018-.354.018-1.073,0-2.146,0-3.22.007-.237,0-.331-.052-.327-.312.016-.944.007-1.888.009-2.832C334.994,500.514,335,500.417,335.008,500.291Z" transform="translate(-325.622 -478.298)"/>
  <path id="Path_40" data-name="Path 40" class="cls-1" d="M427.467,500.475c0,.371,0,.726,0,1.081,0,.706,0,1.411,0,2.117,0,.17-.039.255-.23.254-1.173-.007-2.345-.006-3.518-.009a.93.93,0,0,1-.157-.03v-3.412Z" transform="translate(-408.911 -478.471)"/>
  <path id="Path_41" data-name="Path 41" class="cls-1" d="M248.672,342.933c.547,0,1.094.007,1.64,0,.209,0,.3.042.3.278-.012.974-.011,1.948,0,2.922,0,.2-.063.278-.273.277q-1.67-.01-3.34,0c-.211,0-.3-.051-.3-.282q.016-1.461,0-2.922c0-.207.066-.277.274-.273.566.011,1.133,0,1.7,0Z" transform="translate(-242.605 -330.333)"/>
  <path id="Path_42" data-name="Path 42" class="cls-1" d="M513.684,342.936c.547,0,1.094.008,1.64,0,.211,0,.3.045.3.278-.01.974-.006,1.948,0,2.922,0,.2-.064.279-.274.277q-1.685-.013-3.369,0c-.215,0-.269-.081-.268-.28q.009-1.461,0-2.922c0-.206.066-.278.275-.274.566.011,1.133,0,1.7,0Z" transform="translate(-491.794 -330.333)"/>
  <path id="Path_43" data-name="Path 43" class="cls-1" d="M246.767,500.393h3.842a2.63,2.63,0,0,1,.028.268c0,.964-.006,1.928,0,2.892,0,.215-.06.3-.287.295-1.113-.009-2.226,0-3.339,0-.167,0-.288-.017-.286-.234.009-1.033.008-2.067.012-3.1A.7.7,0,0,1,246.767,500.393Z" transform="translate(-242.634 -478.394)"/>
  <path id="Path_44" data-name="Path 44" class="cls-1" d="M511.828,500.4h3.846c.01.1.026.184.027.27,0,.964,0,1.928.008,2.891,0,.217-.065.3-.288.3-1.113-.009-2.226-.007-3.338-.006-.167,0-.285-.015-.283-.234.007-1.023,0-2.047,0-3.07A.956.956,0,0,1,511.828,500.4Z" transform="translate(-491.876 -478.404)"/>
</svg>
