<svg id="Logo_New" data-name="Logo New" xmlns="http://www.w3.org/2000/svg" width="208.975" height="50.811" viewBox="0 0 208.975 50.811">
  <defs>
    <style>
      .cls-1, .cls-4 {
        fill: #e60000;
      }

      .cls-2 {
        fill: #827970;
        font-size: 10.3px;
      }

      .cls-2, .cls-4 {
        font-family: Arial-Black, Arial;
        font-weight: 800;
      }

      .cls-3 {
        fill: #e22228;
      }

      .cls-4 {
        font-size: 32px;
      }

      .cls-5 {
        fill: #81786f;
      }
    </style>
  </defs>
  <g id="Group_128" data-name="Group 128" transform="translate(-5.339 2.989)">
    <path id="Path_692" data-name="Path 692" class="cls-1" d="M9.233,35.415a12.942,12.942,0,0,1,.537-5.522A14.828,14.828,0,0,1,16.919,21.4a29.517,29.517,0,0,1,4.946-2.256,5.846,5.846,0,0,0,2.769-1.516c.592-.858,0-1.631-.5-2.106-1.1-.979-2.932-1.128-4.161-2.047a1.3,1.3,0,0,1-.7-1.456c.322-1.394,1.857-2.106,2.9-2.641A22.488,22.488,0,0,1,32.471,6.764a22,22,0,0,0-6.149-.915A21,21,0,0,0,10.192,40.28c-.162-.651-.422-1.841-.582-2.436-.128-.83-.249-1.6-.378-2.429"/>
    <path id="Path_693" data-name="Path 693" class="cls-1" d="M281.8,116.583a20.916,20.916,0,0,0-7.981-16.419c-1.506-.711-3.715-.594-5.889-.563-.785.12-1.584.268-2.374.385a12.319,12.319,0,0,0-3.088,1.338c-.412.265-1.4.653-1.1,1.484.641,1.72,4.62,2.047,6.093,3.147.6.443,1.543,1.336.828,2.345-.647.888-2.024,1.185-3.087,1.6-2.6,1.066-5.75,1.426-7.973,2.849a14.433,14.433,0,0,0-6.319,7.6,14.053,14.053,0,0,0-.551,2.788,10.62,10.62,0,0,0-.061,3.028,25.908,25.908,0,0,0,.412,3.209,10.718,10.718,0,0,0,7.6,7.776c.318.062,1.654.3,2.748.417A20.988,20.988,0,0,0,281.8,116.583" transform="translate(-234.484 -89.75)"/>
  </g>
  <g id="SMART-G" transform="translate(-23.115 -8.578)">
    <text id="ELSEWEDY_ELECTROMETER" data-name="ELSEWEDY ELECTROMETER" class="cls-2" transform="translate(70.547 56.389)"><tspan x="0" y="0">EL</tspan><tspan class="cls-1" y="0">SEWEDY</tspan><tspan class="cls-3" y="0"> </tspan><tspan y="0">ELECTRO</tspan><tspan class="cls-1" y="0">METER</tspan></text>
    <text id="SMART-G-2" data-name="SMART-G" class="cls-4" transform="translate(70.089 43.578)"><tspan x="0" y="0">SMART</tspan><tspan class="cls-5" y="0">-G</tspan></text>
  </g>
</svg>
