<svg xmlns="http://www.w3.org/2000/svg" width="27.726" height="29.972" viewBox="0 0 27.726 29.972">
  <defs>
    <style>
      .cls-1 {
        fill: #707070;
        fill-rule: evenodd;
      }
    </style>
  </defs>
  <path id="Path_689" data-name="Path 689" class="cls-1" d="M152.565,165.736c-1.151,0-2.3.007-3.452,0a2.133,2.133,0,0,1-2.106-1.66.8.8,0,0,1,.184-.65,14.1,14.1,0,0,0,4.563-8.342,44.232,44.232,0,0,0,.553-5.5,7.408,7.408,0,0,1,3.344-5.842,7.522,7.522,0,0,1,3.3-1.334c.292-.046.445-.138.36-.491a1.551,1.551,0,0,1,2.358-1.607,1.416,1.416,0,0,1,.692,1.621c-.105.409.155.436.43.489a7.847,7.847,0,0,1,6.029,4.723,6.868,6.868,0,0,1,.5,2.415,26.2,26.2,0,0,0,1.308,8.142,13.383,13.383,0,0,0,3.81,5.655.68.68,0,0,1,.218.838,2.2,2.2,0,0,1-2.154,1.547c-2.268,0-4.536.011-6.8-.01-.466,0-.627.131-.662.61a4.237,4.237,0,0,1-8.424-.212c-.007-.348-.221-.392-.5-.39C154.933,165.739,153.749,165.735,152.565,165.736Zm8.21,3.01.35-.319c-.146-.094-.284-.254-.439-.273a2.539,2.539,0,0,1-2.247-2.262c-.02-.15-.19-.281-.29-.421-.1.164-.283.329-.28.492A3.063,3.063,0,0,0,160.775,168.746Z" transform="translate(-146.996 -140.042)"/>
</svg>
