<svg id="refresh_icon" data-name="refresh icon" xmlns="http://www.w3.org/2000/svg" width="28" height="28" viewBox="0 0 28 28">
  <defs>
    <style>
      .cls-1 {
        fill: #0090ff;
      }

      .cls-2 {
        fill: #fff;
        fill-rule: evenodd;
      }
    </style>
  </defs>
  <circle id="Ellipse_11" data-name="Ellipse 11" class="cls-1" cx="14" cy="14" r="14"/>
  <path id="Path_30" data-name="Path 30" class="cls-2" d="M27.134-129.388l2.077,2.074h-5.1c-.12,0-.121,0-.121-.119q0-2.5,0-5v-.105c.036.034.059.054.081.076q.855.855,1.709,1.712a.107.107,0,0,0,.161.021,8.846,8.846,0,0,1,3.138-1.209,8.753,8.753,0,0,1,2.065-.124,8.976,8.976,0,0,1,8.129,6.52,8.772,8.772,0,0,1,.311,1.82,8.879,8.879,0,0,1-.687,4.091c-.01.024-.022.047-.037.078l-.681-.4c-.257-.149-.512-.3-.771-.447-.067-.038-.073-.073-.046-.139a6.816,6.816,0,0,0,.453-1.887,7.025,7.025,0,0,0-.863-4.165,7.126,7.126,0,0,0-4.114-3.389,6.876,6.876,0,0,0-1.9-.335,7.1,7.1,0,0,0-3.72.875C27.191-129.423,27.172-129.41,27.134-129.388Z" transform="translate(-16.597 136.615)"/>
  <path id="Path_31" data-name="Path 31" class="cls-2" d="M-105.632,205.568l1.523.918a7.1,7.1,0,0,0,.152,5.439,7.045,7.045,0,0,0,2.728,3.171,7.114,7.114,0,0,0,7.353.2l-2.045-2.045.011-.025c.03,0,.06-.005.09-.005q2.5,0,5,0c.089,0,.113.023.113.113q0,2.507,0,5.015c0,.026,0,.051,0,.092-.032-.03-.055-.051-.077-.072q-.855-.855-1.709-1.712a.112.112,0,0,0-.169-.019,8.867,8.867,0,0,1-3.243,1.226,8.785,8.785,0,0,1-2.2.088,8.981,8.981,0,0,1-7.883-6.5,8.915,8.915,0,0,1-.321-2.905,8.77,8.77,0,0,1,.65-2.9C-105.659,205.619-105.648,205.6-105.632,205.568Z" transform="translate(111.418 -195.517)"/>
</svg>
